<svg width="297" height="265" viewBox="0 0 297 265" fill="none" xmlns="http://www.w3.org/2000/svg">
<g clip-path="url(#clip0_922_64)">
<path d="M30.0002 78.48C30.0002 78.48 30.0002 78.59 29.9302 78.65C29.9546 78.595 29.9747 78.5381 29.9902 78.48H30.0002Z" stroke="#231F20" stroke-width="0.91" stroke-miterlimit="10"/>
<path d="M0 113.74L14 113.33L14.21 120.52C14.3597 121.983 14.0448 123.456 13.31 124.73C13.0298 125.167 12.6457 125.529 12.1921 125.782C11.7385 126.035 11.2293 126.171 10.71 126.18C10.0357 126.213 9.36799 126.035 8.8 125.67C8.21679 125.279 7.75579 124.731 7.47 124.09C7.12563 123.319 6.94516 122.485 6.94 121.64L7.94 122C7.9818 122.882 7.85626 123.765 7.57 124.6C7.32983 125.302 6.89236 125.92 6.31 126.38C5.7287 126.805 5.02993 127.039 4.31 127.05C3.75144 127.084 3.19351 126.974 2.69055 126.728C2.18759 126.483 1.75675 126.111 1.44 125.65C0.64195 124.354 0.245292 122.851 0.3 121.33L0 113.74ZM3 117.59L3.1 120.94C3.08009 121.49 3.21524 122.034 3.49 122.51C3.61304 122.68 3.77842 122.814 3.96966 122.9C4.16091 122.986 4.37134 123.021 4.58 123C4.77942 123 4.9755 122.949 5.15024 122.853C5.32497 122.757 5.47275 122.618 5.58 122.45C5.83606 121.962 5.9438 121.409 5.89 120.86L5.78 117.23L8.52 117.15L8.61 120.15C8.5927 120.676 8.72444 121.196 8.99 121.65C9.10269 121.808 9.25346 121.935 9.4283 122.019C9.60314 122.103 9.79636 122.141 9.99 122.13C10.1888 122.132 10.385 122.084 10.56 121.99C10.7349 121.895 10.8829 121.758 10.99 121.59C11.2286 121.121 11.3291 120.594 11.28 120.07L11.2 117.32L3 117.59Z" fill="#2795D3"/>
<path d="M0.439941 128.51L15.1799 132.72L15.7299 136.62L2.72994 144.79L2.14994 140.67L13.3999 134.14L13.6199 135.7L0.999941 132.55L0.439941 128.51ZM3.62994 131.51L6.62994 132.12L7.62994 138.96L4.89994 140.39L3.62994 131.51Z" fill="#2795D3"/>
<path d="M3.2998 146.7L16.8898 143.34L17.8898 147.23L7.3498 149.83L8.9598 156.36L5.9598 157.12L3.2998 146.7Z" fill="#2795D3"/>
<path d="M7.1499 160.92L17.4499 157.47L16.0699 153.35L19.0699 152.35L23.0699 164.35L20.0699 165.35L18.6999 161.25L8.3999 164.7L7.1499 160.92Z" fill="#2795D3"/>
<path d="M10.6899 170.76L23.6199 165.39L25.1499 169.08L12.2299 174.45L10.6899 170.76Z" fill="#2795D3"/>
<path d="M16.5001 184.1C16.009 183.165 15.6938 182.149 15.5701 181.1C15.4557 180.135 15.5304 179.157 15.7901 178.22C16.0478 177.301 16.4939 176.447 17.1001 175.71C18.4268 174.164 20.3099 173.205 22.3401 173.04C23.2919 172.979 24.2459 173.118 25.1401 173.45C26.0541 173.8 26.8901 174.327 27.6001 175C29.2342 176.575 30.252 178.681 30.4701 180.94C30.5436 182.036 30.3408 183.133 29.8801 184.13L26.7001 182.9C26.951 182.298 27.0834 181.653 27.0901 181C27.0883 180.369 26.9339 179.748 26.6401 179.19C26.3933 178.697 26.0538 178.255 25.6401 177.89C25.2681 177.554 24.8282 177.301 24.3501 177.15C23.8639 177.007 23.3545 176.959 22.8501 177.01C22.295 177.07 21.7559 177.233 21.2601 177.49C20.7595 177.739 20.3087 178.078 19.9301 178.49C19.5933 178.869 19.3349 179.311 19.1701 179.79C19.0106 180.263 18.956 180.764 19.0101 181.26C19.0681 181.803 19.2311 182.329 19.4901 182.81C19.7717 183.375 20.1829 183.865 20.6901 184.24C21.2273 184.621 21.8362 184.89 22.4801 185.03L21.6001 188.33C20.522 188.115 19.5147 187.634 18.6701 186.93C17.7572 186.148 17.018 185.184 16.5001 184.1Z" fill="#2795D3"/>
<path d="M24.1401 196.68L35.7801 188.91L38.0001 192.23L26.3601 200L24.1401 196.68Z" fill="#2795D3"/>
<path d="M28.2998 203L39.2998 194.31L41.2998 196.89L38.8298 208.77L37.8298 207.55L45.1298 201.76L47.5598 204.83L36.5598 213.53L34.5598 210.95L37.0598 199L38.0598 200.22L30.7598 206.01L28.2998 203Z" fill="#2795D3"/>
<path d="M42.46 220C41.6793 219.19 41.007 218.283 40.46 217.3C39.984 216.488 39.6461 215.603 39.46 214.68L42.46 213.56C42.6324 214.346 42.9081 215.106 43.28 215.82C43.6652 216.555 44.1572 217.229 44.74 217.82C45.0339 218.15 45.3701 218.439 45.74 218.68C45.9752 218.833 46.2492 218.917 46.53 218.92C46.7599 218.91 46.9776 218.813 47.14 218.65C47.2453 218.545 47.3204 218.413 47.3573 218.269C47.3943 218.125 47.3917 217.973 47.35 217.83C47.2439 217.422 47.0788 217.031 46.86 216.67C46.62 216.24 46.34 215.79 46.03 215.31C45.7121 214.816 45.4217 214.306 45.16 213.78C44.8962 213.257 44.7012 212.703 44.58 212.13C44.4535 211.539 44.4879 210.925 44.6796 210.351C44.8713 209.778 45.2133 209.266 45.67 208.87C46.24 208.301 46.9685 207.918 47.76 207.77C48.6512 207.639 49.5615 207.756 50.39 208.11C51.4767 208.59 52.4535 209.288 53.26 210.16C53.9066 210.817 54.4769 211.545 54.96 212.33C55.417 213.055 55.7546 213.848 55.96 214.68L53 215.92C52.8104 215.224 52.5385 214.552 52.19 213.92C51.8611 213.352 51.4612 212.828 51 212.36C50.6953 212.029 50.3369 211.752 49.94 211.54C49.6854 211.393 49.3935 211.324 49.1 211.34C48.8812 211.352 48.6747 211.445 48.52 211.6C48.4076 211.705 48.3266 211.839 48.2859 211.988C48.2453 212.136 48.2467 212.293 48.29 212.44C48.394 212.84 48.5593 213.221 48.78 213.57C49.03 213.99 49.31 214.44 49.63 214.94C49.95 215.44 50.23 215.94 50.5 216.47C50.7621 216.983 50.9571 217.527 51.08 218.09C51.2096 218.636 51.2096 219.204 51.08 219.75C50.898 220.364 50.5523 220.917 50.08 221.35C49.5033 221.91 48.7715 222.282 47.98 222.42C47.0856 222.562 46.1693 222.444 45.34 222.08C44.2457 221.595 43.2647 220.886 42.46 220Z" fill="#2795D3"/>
<path d="M49.0498 226.14L58.0498 215.39L63.0498 219.52C63.9509 220.232 64.6934 221.125 65.2298 222.14C65.6747 222.991 65.8557 223.956 65.7498 224.91C65.6227 225.875 65.212 226.779 64.5698 227.51C63.9606 228.276 63.14 228.846 62.2098 229.15C61.2955 229.417 60.3241 229.417 59.4098 229.15C58.3023 228.818 57.2792 228.252 56.4098 227.49L53.1498 224.77L55.6498 224.59L52.1898 228.73L49.0498 226.14ZM55.2798 224.91L55.0898 222.33L58.1598 224.89C58.6436 225.359 59.2775 225.643 59.9498 225.69C60.5101 225.637 61.0266 225.364 61.3863 224.931C61.7461 224.498 61.9199 223.941 61.8698 223.38C61.7126 222.727 61.3257 222.152 60.7798 221.76L57.7098 219.2L60.2498 218.95L55.2798 224.91Z" fill="#2795D3"/>
<path d="M66.1101 235.59L72.2301 239.73L70.5101 242.29L61.1201 235.94L69.0001 224.34L78.1701 230.54L76.4501 233.09L70.5401 229.09L66.1101 235.59ZM69.0001 230.88L74.4301 234.56L72.7501 237L67.3101 233.32L69.0001 230.88Z" fill="#2795D3"/>
<path d="M79.2601 247.48C78.324 246.991 77.4838 246.337 76.7801 245.55C76.1354 244.827 75.6393 243.985 75.3201 243.07C75.009 242.168 74.8898 241.211 74.9701 240.26C75.0668 239.255 75.3624 238.28 75.8397 237.391C76.317 236.501 76.9664 235.716 77.7501 235.08C78.4971 234.481 79.363 234.048 80.2901 233.81C81.2306 233.569 82.2097 233.518 83.1701 233.66C84.223 233.807 85.2399 234.146 86.1701 234.66C87.2371 235.213 88.1797 235.979 88.9401 236.91C89.6264 237.766 90.0871 238.78 90.2801 239.86L86.9601 240.67C86.8284 240.029 86.57 239.42 86.2001 238.88C85.84 238.363 85.3595 237.941 84.8001 237.65C84.3244 237.383 83.8015 237.209 83.2601 237.14C82.7639 237.073 82.2591 237.114 81.7801 237.26C81.2986 237.417 80.8533 237.669 80.4701 238C79.6302 238.752 79.0815 239.775 78.9201 240.89C78.8548 241.392 78.8922 241.903 79.0301 242.39C79.1639 242.872 79.4068 243.317 79.7401 243.69C80.1 244.101 80.5343 244.44 81.0201 244.69C81.5727 244.993 82.1902 245.157 82.8201 245.17C83.4785 245.178 84.1316 245.052 84.7401 244.8L85.8701 248C84.8643 248.441 83.7643 248.623 82.6701 248.53C81.4724 248.423 80.3106 248.065 79.2601 247.48Z" fill="#2795D3"/>
<path d="M89.8398 252.25L94.0098 242.25L90.0098 240.58L91.2198 237.68L102.91 242.55L101.7 245.45L97.6998 243.79L93.5298 253.79L89.8398 252.25Z" fill="#2795D3"/>
<path d="M99.54 256L104 242.77L107.79 244.05L103.33 257.32L99.54 256Z" fill="#2795D3"/>
<path d="M113.57 260.48C112.536 260.236 111.554 259.809 110.67 259.22C109.85 258.673 109.149 257.966 108.61 257.14C108.101 256.337 107.761 255.439 107.61 254.5C107.429 253.504 107.467 252.48 107.72 251.5C107.94 250.531 108.37 249.623 108.98 248.84C109.565 248.085 110.296 247.455 111.13 246.99C111.982 246.504 112.925 246.198 113.9 246.09C116.04 245.863 118.193 246.386 119.99 247.57C120.782 248.126 121.461 248.829 121.99 249.64C122.514 250.433 122.872 251.324 123.04 252.26C123.227 253.255 123.192 254.279 122.94 255.26C122.708 256.241 122.276 257.164 121.67 257.97C121.092 258.728 120.363 259.358 119.53 259.82C118.666 260.293 117.718 260.595 116.74 260.71C115.678 260.825 114.604 260.747 113.57 260.48ZM114.35 257.29C114.849 257.418 115.369 257.449 115.88 257.38C116.366 257.31 116.833 257.14 117.25 256.88C117.672 256.621 118.039 256.281 118.33 255.88C118.653 255.415 118.884 254.892 119.01 254.34C119.151 253.795 119.185 253.228 119.11 252.67C119.046 252.169 118.883 251.687 118.63 251.25C118.376 250.826 118.035 250.462 117.63 250.18C117.208 249.883 116.732 249.669 116.23 249.55C115.733 249.424 115.217 249.397 114.71 249.47C114.221 249.534 113.75 249.701 113.33 249.96C112.903 250.217 112.533 250.557 112.24 250.96C111.929 251.426 111.706 251.944 111.58 252.49C111.434 253.034 111.393 253.601 111.46 254.16C111.522 254.656 111.686 255.133 111.941 255.564C112.195 255.994 112.535 256.367 112.94 256.66C113.364 256.961 113.843 257.175 114.35 257.29Z" fill="#2795D3"/>
<path d="M124.4 262.57L126.08 248.67L129.35 249.07L135.95 259.25L134.4 259.07L135.52 249.81L139.41 250.28L137.73 264.18L134.46 263.79L127.84 253.6L129.39 253.78L128.27 263L124.4 262.57Z" fill="#2795D3"/>
<path d="M152.63 264.69C151.643 264.742 150.655 264.603 149.72 264.28C148.934 264.016 148.228 263.554 147.67 262.94C147.173 262.39 146.886 261.681 146.86 260.94C146.823 260.247 146.971 259.556 147.29 258.94C147.653 258.291 148.159 257.734 148.77 257.31C149.581 256.727 150.448 256.227 151.36 255.82C151.923 255.581 152.471 255.307 153 255C153.33 254.816 153.621 254.572 153.86 254.28C154.022 254.091 154.108 253.849 154.1 253.6C154.099 253.472 154.07 253.345 154.014 253.23C153.959 253.114 153.879 253.012 153.78 252.93C153.526 252.753 153.218 252.672 152.91 252.7C152.581 252.694 152.262 252.808 152.01 253.02C151.904 253.115 151.822 253.233 151.768 253.364C151.714 253.496 151.691 253.638 151.7 253.78C151.704 253.961 151.749 254.139 151.83 254.3C151.949 254.524 152.105 254.727 152.29 254.9C152.52 255.12 152.85 255.41 153.29 255.75L161 262L159 264.39L150.34 257.26C149.918 256.925 149.53 256.55 149.18 256.14C148.898 255.811 148.669 255.44 148.5 255.04C148.3 254.555 148.22 254.028 148.269 253.505C148.318 252.983 148.493 252.48 148.78 252.04C149.185 251.461 149.743 251.004 150.39 250.72C151.168 250.383 152.003 250.199 152.85 250.18C153.639 250.133 154.428 250.249 155.17 250.52C155.778 250.742 156.317 251.122 156.73 251.62C157.125 252.134 157.342 252.762 157.35 253.41C157.373 253.999 157.227 254.582 156.93 255.09C156.575 255.667 156.097 256.158 155.53 256.53C154.747 257.05 153.917 257.496 153.05 257.86C152.55 258.097 152.069 258.371 151.61 258.68C151.301 258.891 151.039 259.164 150.84 259.48C150.688 259.758 150.615 260.073 150.63 260.39C150.644 260.659 150.746 260.915 150.92 261.12C151.122 261.356 151.385 261.533 151.68 261.63C152.052 261.762 152.447 261.817 152.84 261.79C153.598 261.769 154.336 261.549 154.98 261.15C155.662 260.715 156.228 260.122 156.63 259.42C157.113 258.587 157.422 257.665 157.54 256.71L160.64 257.52C160.421 258.837 159.916 260.09 159.16 261.19C158.445 262.228 157.496 263.084 156.39 263.69C155.235 264.32 153.946 264.663 152.63 264.69Z" fill="#2795D3"/>
<path d="M175 262.42C173.882 262.619 172.742 262.677 171.61 262.59C170.667 262.532 169.739 262.326 168.86 261.98L169.63 258.85C170.382 259.145 171.168 259.343 171.97 259.44C172.801 259.551 173.645 259.531 174.47 259.38C174.918 259.314 175.355 259.19 175.77 259.01C176.028 258.896 176.249 258.712 176.41 258.48C176.529 258.286 176.572 258.054 176.53 257.83C176.503 257.681 176.436 257.542 176.335 257.429C176.235 257.316 176.105 257.234 175.96 257.19C175.566 257.055 175.155 256.974 174.74 256.95C174.25 256.95 173.74 256.88 173.14 256.87C172.54 256.86 171.99 256.81 171.39 256.73C170.809 256.657 170.24 256.506 169.7 256.28C169.184 256.056 168.728 255.713 168.37 255.28C167.961 254.777 167.698 254.172 167.61 253.53C167.461 252.737 167.555 251.918 167.88 251.18C168.264 250.359 168.874 249.665 169.64 249.18C170.646 248.546 171.773 248.127 172.95 247.95C173.857 247.79 174.779 247.73 175.7 247.77C176.554 247.8 177.398 247.966 178.2 248.26L177.53 251.35C176.845 251.11 176.133 250.959 175.41 250.9C174.766 250.85 174.118 250.877 173.48 250.98C173.032 251.046 172.6 251.188 172.2 251.4C171.939 251.534 171.719 251.734 171.56 251.98C171.455 252.172 171.417 252.393 171.45 252.61C171.476 252.761 171.543 252.902 171.644 253.018C171.744 253.135 171.874 253.222 172.02 253.27C172.41 253.405 172.818 253.482 173.23 253.5C173.72 253.5 174.23 253.55 174.83 253.56C175.43 253.57 176.01 253.63 176.59 253.7C177.163 253.777 177.723 253.925 178.26 254.14C178.783 254.343 179.249 254.669 179.62 255.09C180.023 255.584 180.286 256.179 180.38 256.81C180.524 257.601 180.423 258.418 180.09 259.15C179.704 259.969 179.094 260.663 178.33 261.15C177.32 261.8 176.186 262.232 175 262.42Z" fill="#2795D3"/>
<path d="M190.1 258.87C189.265 259.167 188.379 259.296 187.493 259.25C186.608 259.204 185.74 258.983 184.94 258.6C184.185 258.154 183.53 257.559 183.014 256.85C182.498 256.142 182.132 255.335 181.94 254.48L179.75 247L183.59 245.88L185.73 253.24C185.907 254.136 186.4 254.938 187.12 255.5C187.435 255.681 187.786 255.793 188.148 255.827C188.511 255.862 188.876 255.818 189.22 255.7C189.575 255.618 189.908 255.459 190.194 255.234C190.481 255.01 190.715 254.725 190.88 254.4C191.197 253.545 191.197 252.605 190.88 251.75L188.74 244.4L192.54 243.29L194.72 250.76C195.019 251.588 195.142 252.47 195.08 253.348C195.018 254.226 194.773 255.082 194.36 255.86C193.886 256.62 193.264 257.277 192.533 257.794C191.802 258.311 190.974 258.677 190.1 258.87Z" fill="#2795D3"/>
<path d="M199.89 255.48L194.5 242.56L200.45 240.08C201.498 239.61 202.632 239.365 203.78 239.36C204.742 239.357 205.682 239.643 206.48 240.18C207.256 240.759 207.861 241.537 208.234 242.43C208.607 243.324 208.734 244.301 208.6 245.26C208.407 246.192 207.941 247.045 207.26 247.71C206.445 248.52 205.471 249.154 204.4 249.57L200.49 251.2L201.49 248.96L203.57 253.96L199.89 255.48ZM201.68 249.38L199.31 248.38L203 246.85C203.64 246.634 204.182 246.198 204.53 245.62C204.654 245.364 204.718 245.084 204.718 244.8C204.718 244.516 204.654 244.235 204.53 243.98C204.437 243.717 204.285 243.478 204.085 243.282C203.886 243.086 203.645 242.939 203.38 242.85C202.729 242.68 202.039 242.755 201.44 243.06L197.74 244.6L198.74 242.23L201.68 249.38ZM207.94 252.12L202.74 248.77L206.67 247.13L211.89 250.48L207.94 252.12Z" fill="#2795D3"/>
<path d="M218.26 247.1L206.26 237.76L210.03 235.68L220.35 243.83L218.13 245.06L216.84 231.93L220.31 230.02L221.76 245.2L218.26 247.1Z" fill="#2795D3"/>
<path d="M229.9 236.49L235.98 232.28L237.73 234.82L228.4 241.26L220.4 229.74L229.51 223.45L231.26 225.98L225.44 230L229.9 236.49ZM226.54 232.12L231.94 228.39L233.61 230.81L228.21 234.54L226.54 232.12Z" fill="#2795D3"/>
<path d="M242.79 230.7L239 226.18L241.25 227.4L229.65 223.51L232.89 220.77L241.25 223.62L239.4 225.19L238 216.44L241 213.94L243 225.94L242 223.6L245.82 228.12L242.79 230.7Z" fill="#2795D3"/>
<path d="M260.6 213.75C259.916 214.561 259.089 215.239 258.16 215.75C257.307 216.21 256.373 216.502 255.41 216.61C254.459 216.71 253.498 216.608 252.59 216.31C251.63 215.994 250.748 215.479 250 214.8C249.231 214.145 248.611 213.334 248.18 212.42C247.773 211.559 247.552 210.622 247.53 209.67C247.504 208.699 247.674 207.733 248.03 206.83C248.878 204.723 250.463 202.996 252.49 201.97C253.48 201.496 254.574 201.279 255.67 201.34V204.76C255.018 204.742 254.368 204.854 253.76 205.09C253.175 205.325 252.654 205.695 252.24 206.17C251.878 206.581 251.591 207.051 251.39 207.56C251.212 208.025 251.141 208.524 251.18 209.02C251.224 209.526 251.366 210.019 251.6 210.47C252.142 211.458 253.012 212.226 254.06 212.64C254.537 212.813 255.043 212.891 255.55 212.87C256.05 212.844 256.539 212.708 256.98 212.47C257.46 212.22 257.887 211.881 258.24 211.47C258.664 211.003 258.969 210.44 259.13 209.83C259.291 209.175 259.314 208.494 259.2 207.83L262.59 207.43C262.79 208.511 262.718 209.624 262.38 210.67C262.005 211.808 261.399 212.857 260.6 213.75Z" fill="#2795D3"/>
<path d="M270.25 201.36C269.651 202.24 268.895 203.003 268.02 203.61C267.216 204.181 266.304 204.582 265.34 204.79C264.399 204.975 263.431 204.975 262.49 204.79C261.515 204.589 260.592 204.192 259.775 203.623C258.958 203.054 258.266 202.325 257.74 201.48C257.252 200.66 256.93 199.753 256.79 198.81C256.649 197.839 256.704 196.849 256.95 195.9C257.223 194.86 257.68 193.878 258.3 193C258.902 192.119 259.657 191.353 260.53 190.74C261.334 190.178 262.242 189.78 263.2 189.57C264.153 189.357 265.139 189.348 266.096 189.543C267.052 189.738 267.956 190.132 268.75 190.7C269.582 191.269 270.286 192.005 270.82 192.86C271.32 193.674 271.643 194.583 271.77 195.53C271.899 196.502 271.838 197.491 271.59 198.44C271.323 199.486 270.869 200.475 270.25 201.36ZM267.56 199.49C267.851 199.064 268.064 198.59 268.19 198.09C268.295 197.609 268.295 197.111 268.19 196.63C268.094 196.136 267.901 195.667 267.62 195.25C267.305 194.785 266.905 194.384 266.44 194.07C265.979 193.739 265.46 193.498 264.91 193.36C264.421 193.25 263.915 193.233 263.42 193.31C262.934 193.386 262.47 193.566 262.06 193.84C261.197 194.418 260.583 195.3 260.34 196.31C260.24 196.791 260.24 197.288 260.34 197.77C260.434 198.267 260.628 198.74 260.91 199.16C261.232 199.62 261.635 200.016 262.1 200.33C262.557 200.661 263.073 200.902 263.62 201.04C264.106 201.169 264.615 201.19 265.11 201.1C265.6 201.02 266.068 200.836 266.48 200.56C266.904 200.274 267.27 199.911 267.56 199.49Z" fill="#2795D3"/>
<path d="M276.21 192L263.78 185.57L265.29 182.65L276.43 181.84L275.63 183.38L269.8 173.93L271.31 171L283.76 177.42L282.07 180.68L274.54 176.83L274.82 176.28L279.15 183.28L278.34 184.86L270.03 185.5L270.39 184.82L277.9 188.71L276.21 192Z" fill="#2795D3"/>
<path d="M285.23 173.73L272.1 168.86L274.34 162.86C274.714 161.775 275.306 160.777 276.08 159.93C276.734 159.227 277.584 158.736 278.52 158.52C279.476 158.343 280.463 158.428 281.375 158.766C282.287 159.104 283.09 159.682 283.7 160.44C284.25 161.218 284.566 162.138 284.61 163.09C284.657 164.238 284.459 165.384 284.03 166.45L282.56 170.45L281.56 168.16L286.63 170.04L285.23 173.73ZM282 168.26L279.64 169.26L281.03 165.51C281.323 164.884 281.376 164.172 281.18 163.51C281.078 163.245 280.917 163.008 280.709 162.815C280.501 162.623 280.252 162.481 279.98 162.4C279.723 162.291 279.446 162.241 279.167 162.254C278.889 162.266 278.616 162.339 278.37 162.47C277.804 162.835 277.388 163.393 277.2 164.04L275.81 167.79L274.73 165.47L282 168.26Z" fill="#2795D3"/>
<path d="M289.86 161.38L277.86 151.85L278.86 148.03L294 145.46L293 149.46L280 151.22L280.39 149.69L290.86 157.43L289.86 161.38ZM288.06 157.38L285.5 155.66L287.22 148.97L290.29 148.69L288.06 157.38Z" fill="#2795D3"/>
<path d="M294.28 143.38L280.41 141.46L280.86 138.19L291.16 131.77L290.95 133.31L281.71 132L282.25 128.12L296.12 130.04L295.67 133.3L285.37 139.75L285.58 138.21L294.81 139.48L294.28 143.38Z" fill="#2795D3"/>
<path d="M296.48 122.74L290.56 122.57L292.97 121.71L282.33 127.71L282.45 123.47L290.17 119.15L290.09 121.57L282.65 116.76L282.77 112.89L293 119.51L290.64 118.57L296.56 118.74L296.48 122.74Z" fill="#2795D3"/>
<path d="M265.89 78.48H220.27C213.36 49.79 200.1 23 174.08 0C194.754 4.29087 214.01 13.7343 230.06 27.454C246.11 41.1737 258.435 58.7253 265.89 78.48Z" fill="white"/>
<path d="M265.15 166C258.799 182.045 249.201 196.603 236.957 208.763C224.713 220.922 210.088 230.42 194 236.66L176 242.16H175.93C196.912 222.016 212.044 196.565 219.72 168.51C219.95 167.67 220.18 166.84 220.4 166H265.15Z" fill="white"/>
<path d="M273.58 121.28C273.588 130.998 272.44 140.683 270.16 150.13H223.64C226.492 131.644 226.428 112.826 223.45 94.3599H270.6C272.585 103.196 273.584 112.224 273.58 121.28Z" fill="white"/>
<path d="M205.38 78.48H155V0C179.57 24.74 197 50.79 205.38 78.48Z" fill="white"/>
<path d="M204.56 166C196.14 193.28 179.62 218.673 155 242.18V166H204.56Z" fill="white"/>
<path d="M208.51 150.13H155V94.3599H209.19C210.623 102.516 211.27 110.79 211.12 119.07C211.32 129.485 210.446 139.894 208.51 150.13Z" fill="white"/>
<path d="M73.86 150.13H27.34C27.15 149.35 26.97 148.57 26.8 147.78C26.73 147.48 26.67 147.19 26.61 146.89C26.51 146.43 26.41 145.97 26.32 145.51C25.56 141.717 24.9766 137.867 24.57 133.96C24.51 133.44 24.46 132.91 24.42 132.39C24.38 131.87 24.33 131.39 24.29 130.82C24.29 130.71 24.29 130.6 24.29 130.49C24.13 128.49 24.0266 126.49 23.98 124.49C23.98 124.38 23.98 124.27 23.98 124.16C23.98 123.84 23.98 123.51 23.98 123.16C23.98 122.53 23.98 121.9 23.98 121.27C23.98 120.44 23.98 119.6 23.98 118.77C23.98 117.65 24.03 116.54 24.09 115.43C24.09 114.6 24.17 113.78 24.23 112.95C24.23 112.36 24.31 111.76 24.37 111.16C24.37 110.83 24.42 110.49 24.45 110.16L24.51 109.5C24.57 108.833 24.64 108.167 24.72 107.5C24.8 106.833 24.88 106.167 24.96 105.5C25.09 104.5 25.24 103.43 25.4 102.41C25.47 101.93 25.55 101.41 25.63 100.98C25.87 99.5501 26.13 98.1401 26.41 96.7301C26.55 96.0801 26.68 95.4301 26.83 94.7901C26.83 94.6501 26.89 94.5101 26.93 94.3701H74.05C71.0733 112.833 71.0092 131.648 73.86 150.13Z" fill="white"/>
<path d="M124.32 240.37H124.25L106.25 234.88C105.52 234.6 104.8 234.31 104.08 234.01C103.36 233.71 102.7 233.44 102.01 233.14H101.92C101.3 232.88 100.69 232.61 100.08 232.33C98.5598 231.64 97.0798 230.93 95.5898 230.19C94.9798 229.89 94.3698 229.58 93.7698 229.26L93.4598 229.1L91.8698 228.25C91.1698 227.87 90.4698 227.49 89.7798 227.09L88.7798 226.49C87.2665 225.617 85.7765 224.71 84.3098 223.77C83.6098 223.33 82.9098 222.88 82.2198 222.42L82.0898 222.33L80.8698 221.5L79.6298 220.65C79.0398 220.23 78.4598 219.82 77.8798 219.39C77.2998 218.96 76.6398 218.48 76.0298 218.02C72.9498 215.69 69.9798 213.22 67.1298 210.64L65.6798 209.29L65.4798 209.1L63.8598 207.54C63.2332 206.92 62.6132 206.3 61.9998 205.68L60.6398 204.27L58.9998 202.53C58.4798 201.97 57.9998 201.4 57.4698 200.83C56.4098 199.63 55.3798 198.417 54.3798 197.19C53.9398 196.64 53.4998 196.1 53.0698 195.55C52.6398 195 52.1298 194.34 51.6598 193.73L51.5998 193.66L50.2998 191.9C49.3865 190.66 48.5065 189.407 47.6598 188.14C46.8132 186.873 45.9798 185.59 45.1598 184.29C44.3498 182.98 43.5598 181.67 42.7998 180.34L42.5398 179.89L41.6698 178.33C40.5598 176.33 39.5098 174.25 38.5198 172.17L37.7398 170.5C37.6198 170.23 37.4898 169.96 37.3698 169.68C36.7898 168.41 36.2398 167.12 35.7098 165.82C35.4898 165.28 35.2798 164.75 35.0698 164.21H79.8698C80.0898 165.05 80.3198 165.88 80.5498 166.72C88.2201 194.773 103.346 220.224 124.32 240.37Z" fill="white"/>
<path d="M121.77 0C95.77 23 82.5 49.8 75.59 78.48H30C30.2733 77.74 30.5533 77.01 30.84 76.29C31.15 75.5 31.47 74.71 31.84 73.93C32.21 73.15 32.44 72.51 32.75 71.81L33.08 71.09C33.37 70.43 33.67 69.78 33.98 69.09C34.29 68.4 34.68 67.62 35.04 66.89C35.17 66.64 35.29 66.39 35.41 66.15C35.71 65.56 36.01 64.97 36.32 64.39C37.5267 62.07 38.8133 59.7933 40.18 57.56C40.6333 56.8133 41.0933 56.0733 41.56 55.34C42.0267 54.6067 42.4967 53.8867 42.97 53.18V53.13C43.45 52.41 43.97 51.7 44.43 50.99C44.5023 50.8973 44.5691 50.8005 44.63 50.7L45.95 48.87C46.46 48.17 46.95 47.47 47.51 46.78C48.07 46.09 48.51 45.53 48.97 44.91C49.43 44.29 50.15 43.43 50.76 42.7C51.37 41.97 51.88 41.37 52.45 40.7C53.02 40.03 53.45 39.56 53.95 38.99L54.17 38.75C54.75 38.11 55.34 37.47 55.94 36.84V36.79C56.53 36.17 57.11 35.56 57.71 34.96L59.55 33.12C60.17 32.5133 60.8 31.9133 61.44 31.32C62.08 30.7267 62.72 30.1367 63.36 29.55C63.76 29.19 64.16 28.83 64.57 28.48C65.47 27.69 66.39 26.91 67.31 26.15C67.93 25.64 68.54 25.15 69.17 24.64L69.35 24.5C69.92 24.05 70.49 23.6 71.07 23.16C72.59 22 74.1367 20.8733 75.71 19.78L77.71 18.44L77.85 18.35C78.54 17.89 79.24 17.43 79.95 16.98L80.24 16.8C80.9067 16.3733 81.5733 15.9533 82.24 15.54C82.99 15.08 83.75 14.63 84.51 14.2C85.27 13.77 86 13.4 86.71 13L86.81 12.95L89.14 11.7L89.38 11.57C90.08 11.21 90.78 10.85 91.49 10.5L93.87 9.35L94.87 8.9L96.31 8.25C97.12 7.89 97.93 7.53 98.75 7.19C99.57 6.85 100.39 6.51 101.21 6.19C102.03 5.87 102.87 5.54 103.71 5.19C104.55 4.84 105.37 4.58 106.21 4.29C107.03 4 107.85 3.73 108.68 3.45L109.12 3.31L111.12 2.7L112.12 2.41L113.95 1.89C114.8 1.65 115.66 1.42 116.51 1.2C118.223 0.78 119.977 0.38 121.77 0Z" fill="white"/>
<path d="M140.87 0V78.48H90.48C98.89 50.79 116.29 24.74 140.87 0Z" fill="white"/>
<path d="M140.87 94.3599V150.13H87.3502C85.4177 139.893 84.5465 129.485 84.7502 119.07C84.6005 110.79 85.2468 102.516 86.6802 94.3599H140.87Z" fill="white"/>
<path d="M140.87 166V242.17C116.25 218.663 99.7265 193.273 91.2998 166H140.87Z" fill="white"/>
<path d="M30.79 141.58V105.78H49C53.74 105.78 57.27 106.646 59.59 108.38C60.6802 109.135 61.5679 110.146 62.1748 111.325C62.7817 112.504 63.0892 113.814 63.07 115.14C63.1032 116.87 62.6002 118.567 61.63 120C60.6056 121.457 59.1867 122.591 57.54 123.27C55.5649 124.093 53.4395 124.495 51.3 124.45L52.3 121.99C54.547 121.945 56.7815 122.335 58.88 123.14C60.6387 123.809 62.1666 124.973 63.28 126.49C64.3449 128.037 64.8911 129.882 64.84 131.76C64.8855 133.191 64.5605 134.609 63.8965 135.878C63.2325 137.146 62.252 138.222 61.05 139C58.5367 140.74 54.87 141.61 50.05 141.61L30.79 141.58ZM40.79 134.27H49.29C50.6825 134.365 52.0725 134.052 53.29 133.37C53.704 133.044 54.0386 132.629 54.2686 132.155C54.4987 131.681 54.6183 131.161 54.6183 130.635C54.6183 130.108 54.4987 129.588 54.2686 129.115C54.0386 128.641 53.704 128.225 53.29 127.9C52.0725 127.217 50.6825 126.905 49.29 127H40.05V120H47.72C49.0576 120.091 50.3925 119.789 51.56 119.13C51.9759 118.85 52.3123 118.467 52.5365 118.018C52.7608 117.569 52.8653 117.071 52.84 116.57C52.8706 116.057 52.7689 115.545 52.5448 115.083C52.3207 114.62 51.9816 114.223 51.56 113.93C50.3854 113.292 49.0537 113.001 47.72 113.09H40.72L40.79 134.27Z" fill="#2A246B"/>
<path d="M107.27 143.72V103.63H118.61V143.72H107.27Z" fill="#2A246B"/>
<path d="M182.61 144.11C179.453 144.125 176.309 143.718 173.26 142.9C170.705 142.282 168.269 141.248 166.05 139.84L169.7 131.59C171.599 132.78 173.646 133.715 175.79 134.37C178.013 135.09 180.333 135.461 182.67 135.47C183.926 135.508 185.181 135.373 186.4 135.07C187.159 134.892 187.852 134.504 188.4 133.95C188.826 133.472 189.054 132.85 189.04 132.21C189.04 131.789 188.926 131.376 188.709 131.014C188.492 130.653 188.182 130.358 187.81 130.16C186.798 129.583 185.711 129.149 184.58 128.87C183.25 128.52 181.81 128.18 180.26 127.87C178.658 127.538 177.075 127.117 175.52 126.61C173.975 126.113 172.502 125.413 171.14 124.53C169.831 123.674 168.744 122.519 167.97 121.16C167.108 119.559 166.69 117.757 166.76 115.94C166.743 113.682 167.409 111.473 168.67 109.6C170.119 107.547 172.124 105.952 174.45 105C177.509 103.75 180.797 103.157 184.1 103.26C186.661 103.257 189.215 103.549 191.71 104.13C194.034 104.644 196.262 105.525 198.31 106.74L195 114.92C193.248 113.928 191.38 113.156 189.44 112.62C187.702 112.149 185.91 111.904 184.11 111.89C182.853 111.849 181.599 112.021 180.4 112.4C179.625 112.634 178.932 113.081 178.4 113.69C178.009 114.163 177.793 114.756 177.79 115.37C177.784 115.8 177.895 116.224 178.112 116.596C178.329 116.967 178.643 117.273 179.02 117.48C180.018 118.049 181.097 118.464 182.22 118.71C183.53 119.03 184.98 119.36 186.57 119.71C188.171 120.051 189.753 120.475 191.31 120.98C192.839 121.459 194.301 122.131 195.66 122.98C197.096 123.856 198.27 125.103 199.056 126.591C199.843 128.078 200.214 129.75 200.13 131.43C200.137 133.681 199.46 135.882 198.19 137.74C196.732 139.804 194.717 141.409 192.38 142.37C189.282 143.632 185.953 144.225 182.61 144.11Z" fill="#2A246B"/>
<path d="M248.52 141.73C245.93 141.758 243.358 141.311 240.93 140.41C238.688 139.584 236.632 138.323 234.88 136.7C233.166 135.086 231.804 133.135 230.88 130.97C228.974 126.297 228.974 121.063 230.88 116.39C231.804 114.224 233.166 112.274 234.88 110.66C236.634 109.037 238.69 107.773 240.93 106.94C246.189 105.08 251.946 105.204 257.12 107.29C259.604 108.363 261.778 110.045 263.44 112.18L257.19 117.83C256.159 116.595 254.895 115.576 253.47 114.83C252.085 114.145 250.555 113.802 249.01 113.83C247.671 113.813 246.341 114.051 245.09 114.53C243.94 114.967 242.9 115.65 242.04 116.53C241.173 117.439 240.494 118.509 240.04 119.68C239.08 122.308 239.08 125.191 240.04 127.82C240.492 128.989 241.171 130.056 242.04 130.96C242.897 131.843 243.939 132.525 245.09 132.96C246.341 133.439 247.671 133.676 249.01 133.66C250.556 133.692 252.086 133.349 253.47 132.66C254.91 131.906 256.177 130.861 257.19 129.59L263.44 135.24C261.776 137.378 259.603 139.066 257.12 140.15C254.397 141.277 251.466 141.816 248.52 141.73Z" fill="#2A246B"/>
</g>
<defs>
<clipPath id="clip0_922_64">
<rect width="296.6" height="264.7" fill="white"/>
</clipPath>
</defs>
</svg>
