<svg xmlns="http://www.w3.org/2000/svg" viewBox="0 0 296.6 264.7"><defs><style>.cls-1,.cls-2{fill:none;}.cls-1{stroke:#231f20;stroke-miterlimit:10;stroke-width:0.91px;}.cls-3{fill:#2a246b;}.cls-4{fill:#2795d3;}.cls-5{fill:#fff;}</style></defs><g id="Layer_2" data-name="Layer 2"><g id="Layer_1-2" data-name="Layer 1"><path class="cls-1" d="M30,78.48s0,.11-.07.17a1.15,1.15,0,0,0,.06-.17Z"/><path class="cls-2" d="M121.77,0c-26,23-39.27,49.8-46.18,78.48H30q.41-1.11.84-2.19c.31-.79.63-1.58,1-2.36s.6-1.42.91-2.12l.33-.72c.29-.66.59-1.31.9-2s.7-1.47,1.06-2.2c.13-.25.25-.5.37-.74.3-.59.6-1.18.91-1.76q1.81-3.48,3.86-6.83.68-1.12,1.38-2.22t1.41-2.16l0-.05c.48-.72,1-1.43,1.46-2.14a3,3,0,0,0,.2-.29l1.32-1.83c.51-.7,1-1.4,1.56-2.09s1-1.25,1.46-1.87,1.18-1.48,1.79-2.21,1.12-1.33,1.69-2,1-1.14,1.5-1.71l.22-.24c.58-.64,1.17-1.28,1.77-1.91l0-.05c.59-.62,1.17-1.23,1.77-1.83l1.84-1.84q.93-.91,1.89-1.8t1.92-1.77c.4-.36.8-.72,1.21-1.07.9-.79,1.82-1.57,2.74-2.33.62-.51,1.23-1,1.86-1.51l.18-.14c.57-.45,1.14-.9,1.72-1.34q2.28-1.74,4.64-3.38l2-1.34.14-.09c.69-.46,1.39-.92,2.1-1.37l.29-.18q1-.64,2-1.26c.75-.46,1.51-.91,2.27-1.34S86,13.4,86.71,13l.1-.05,2.33-1.25.24-.13c.7-.36,1.4-.72,2.11-1.07l2.38-1.15,1-.45,1.44-.65c.81-.36,1.62-.72,2.44-1.06s1.64-.68,2.46-1,1.66-.65,2.5-1,1.66-.61,2.5-.9h0c.82-.29,1.64-.56,2.47-.84l.44-.14,2-.61,1-.29,1.83-.52c.85-.24,1.71-.47,2.56-.69Q119.08.57,121.77,0Z"/><path class="cls-2" d="M140.87,0V78.48H90.48C98.89,50.79,116.29,24.74,140.87,0Z"/><path class="cls-2" d="M205.38,78.48H155V0C179.57,24.74,197,50.79,205.38,78.48Z"/><path class="cls-2" d="M265.89,78.48H220.27C213.36,49.79,200.1,23,174.08,0A125.36,125.36,0,0,1,265.89,78.48Z"/><path class="cls-2" d="M124.32,240.37h-.09a124.11,124.11,0,0,1-18-5.49c-.73-.28-1.45-.57-2.17-.87s-1.38-.57-2.07-.87l-.09,0c-.62-.26-1.23-.53-1.84-.81-1.52-.69-3-1.4-4.49-2.14-.61-.3-1.22-.61-1.82-.93l-.31-.16-1.59-.85c-.7-.38-1.4-.76-2.09-1.16l-1-.6q-2.27-1.31-4.47-2.72c-.7-.44-1.4-.89-2.09-1.35l-.13-.09-1.22-.83-1.24-.85c-.59-.42-1.17-.83-1.75-1.26s-1.24-.91-1.85-1.37c-3.08-2.33-6.05-4.8-8.9-7.38l-1.45-1.35-.2-.19-1.62-1.56q-.94-.93-1.86-1.86l-1.36-1.41L59,202.53c-.52-.56-1-1.13-1.53-1.7q-1.59-1.8-3.09-3.64c-.44-.55-.88-1.09-1.31-1.64s-.94-1.21-1.41-1.82l-.06-.07-1.3-1.76q-1.37-1.86-2.64-3.76t-2.5-3.85c-.81-1.31-1.6-2.62-2.36-3.95l-.26-.45-.87-1.56c-1.11-2-2.16-4.08-3.15-6.16l-.78-1.67c-.12-.27-.25-.54-.37-.82-.58-1.27-1.13-2.56-1.66-3.86-.22-.54-.43-1.07-.64-1.61h44.8c.22.84.45,1.67.68,2.51A161,161,0,0,0,124.32,240.37Z"/><path class="cls-2" d="M140.87,166v76.17Q103.94,206.91,91.3,166Z"/><path class="cls-2" d="M204.56,166Q191.93,206.92,155,242.18V166Z"/><path class="cls-2" d="M265.15,166A125.52,125.52,0,0,1,176,242.16h-.07a161,161,0,0,0,43.79-73.65c.23-.84.46-1.67.68-2.51Z"/><path class="cls-2" d="M74.05,94.36a178.94,178.94,0,0,0-.19,55.77H27.34c-.19-.78-.37-1.56-.54-2.35-.07-.3-.13-.59-.19-.89-.1-.46-.2-.92-.29-1.38q-1.14-5.69-1.75-11.55c-.06-.52-.11-1.05-.15-1.57s-.09-1-.13-1.57c0-.11,0-.22,0-.33q-.24-3-.31-6c0-.11,0-.22,0-.33,0-.32,0-.65,0-1,0-.63,0-1.26,0-1.89,0-.83,0-1.67,0-2.5,0-1.12.05-2.23.11-3.34,0-.83.08-1.65.14-2.48,0-.59.08-1.19.14-1.79,0-.33.05-.67.08-1l.06-.66q.09-1,.21-2t.24-2c.13-1,.28-2.07.44-3.09.07-.48.15-1,.23-1.43.24-1.43.5-2.84.78-4.25.14-.65.27-1.3.42-1.94,0-.14.06-.28.1-.42Z"/><path class="cls-2" d="M140.87,94.36v55.77H87.35a151.47,151.47,0,0,1-2.6-31.06,129.26,129.26,0,0,1,1.93-24.71Z"/><path class="cls-2" d="M208.51,150.13H155V94.36h54.19a129.26,129.26,0,0,1,1.93,24.71A151.47,151.47,0,0,1,208.51,150.13Z"/><path class="cls-2" d="M273.58,121.28a122.57,122.57,0,0,1-3.42,28.85H223.64a178.94,178.94,0,0,0-.19-55.77H270.6A122.57,122.57,0,0,1,273.58,121.28Z"/><path class="cls-3" d="M265.89,78.48H220.27C213.36,49.79,200.1,23,174.08,0A125.36,125.36,0,0,1,265.89,78.48Z"/><path class="cls-3" d="M265.15,166A125.22,125.22,0,0,1,194,236.66L176,242.16l-.07,0h0a161,161,0,0,0,43.79-73.65c.23-.84.46-1.67.68-2.51Z"/><path class="cls-3" d="M273.58,121.28a122.57,122.57,0,0,1-3.42,28.85H223.64a178.94,178.94,0,0,0-.19-55.77H270.6A122.57,122.57,0,0,1,273.58,121.28Z"/><path class="cls-3" d="M205.38,78.48H155V0C179.57,24.74,197,50.79,205.38,78.48Z"/><path class="cls-3" d="M204.56,166Q191.93,206.92,155,242.18V166Z"/><path class="cls-3" d="M208.51,150.13H155V94.36h54.19a129.26,129.26,0,0,1,1.93,24.71A151.47,151.47,0,0,1,208.51,150.13Z"/><path class="cls-3" d="M73.86,150.13H27.34c-.19-.78-.37-1.56-.54-2.35-.07-.3-.13-.59-.19-.89-.1-.46-.2-.92-.29-1.38q-1.14-5.69-1.75-11.55c-.06-.52-.11-1.05-.15-1.57s-.09-1-.13-1.57c0-.11,0-.22,0-.33q-.24-3-.31-6c0-.11,0-.22,0-.33,0-.32,0-.65,0-1,0-.63,0-1.26,0-1.89,0-.83,0-1.67,0-2.5,0-1.12.05-2.23.11-3.34,0-.83.08-1.65.14-2.48,0-.59.08-1.19.14-1.79,0-.33.05-.67.08-1l.06-.66q.09-1,.21-2t.24-2c.13-1,.28-2.07.44-3.09.07-.48.15-1,.23-1.43.24-1.43.5-2.84.78-4.25.14-.65.27-1.3.42-1.94,0-.14.06-.28.1-.42H74.05A178.94,178.94,0,0,0,73.86,150.13Z"/><path class="cls-3" d="M124.32,240.37h0l-.07,0h0l-18-5.49c-.73-.28-1.45-.57-2.17-.87s-1.38-.57-2.07-.87l-.09,0c-.62-.26-1.23-.53-1.84-.81-1.52-.69-3-1.4-4.49-2.14-.61-.3-1.22-.61-1.82-.93l-.31-.16-1.59-.85c-.7-.38-1.4-.76-2.09-1.16l-1-.6q-2.27-1.31-4.47-2.72c-.7-.44-1.4-.89-2.09-1.35l-.13-.09-1.22-.83-1.24-.85c-.59-.42-1.17-.83-1.75-1.26s-1.24-.91-1.85-1.37c-3.08-2.33-6.05-4.8-8.9-7.38l-1.45-1.35-.2-.19-1.62-1.56q-.94-.93-1.86-1.86l-1.36-1.41L59,202.53c-.52-.56-1-1.13-1.53-1.7q-1.59-1.8-3.09-3.64c-.44-.55-.88-1.09-1.31-1.64s-.94-1.21-1.41-1.82l-.06-.07-1.3-1.76q-1.37-1.86-2.64-3.76t-2.5-3.85c-.81-1.31-1.6-2.62-2.36-3.95l-.26-.45-.87-1.56c-1.11-2-2.16-4.08-3.15-6.16l-.78-1.67c-.12-.27-.25-.54-.37-.82-.58-1.27-1.13-2.56-1.66-3.86-.22-.54-.43-1.07-.64-1.61h44.8c.22.84.45,1.67.68,2.51A161,161,0,0,0,124.32,240.37Z"/><path class="cls-3" d="M121.77,0c-26,23-39.27,49.8-46.18,78.48H30q.41-1.11.84-2.19c.31-.79.63-1.58,1-2.36s.6-1.42.91-2.12l.33-.72c.29-.66.59-1.31.9-2s.7-1.47,1.06-2.2c.13-.25.25-.5.37-.74.3-.59.6-1.18.91-1.76q1.81-3.48,3.86-6.83.68-1.12,1.38-2.22t1.41-2.16l0-.05c.48-.72,1-1.43,1.46-2.14a3,3,0,0,0,.2-.29l1.32-1.83c.51-.7,1-1.4,1.56-2.09s1-1.25,1.46-1.87,1.18-1.48,1.79-2.21,1.12-1.33,1.69-2,1-1.14,1.5-1.71l.22-.24c.58-.64,1.17-1.28,1.77-1.91l0-.05c.59-.62,1.17-1.23,1.77-1.83l1.84-1.84q.93-.91,1.89-1.8t1.92-1.77c.4-.36.8-.72,1.21-1.07.9-.79,1.82-1.57,2.74-2.33.62-.51,1.23-1,1.86-1.51l.18-.14c.57-.45,1.14-.9,1.72-1.34q2.28-1.74,4.64-3.38l2-1.34.14-.09c.69-.46,1.39-.92,2.1-1.37l.29-.18q1-.64,2-1.26c.75-.46,1.51-.91,2.27-1.34S86,13.4,86.71,13l.1-.05,2.33-1.25.24-.13c.7-.36,1.4-.72,2.11-1.07l2.38-1.15,1-.45,1.44-.65c.81-.36,1.62-.72,2.44-1.06s1.64-.68,2.46-1,1.66-.65,2.5-1,1.66-.61,2.5-.9h0c.82-.29,1.64-.56,2.47-.84l.44-.14,2-.61,1-.29,1.83-.52c.85-.24,1.71-.47,2.56-.69Q119.08.57,121.77,0Z"/><path class="cls-3" d="M140.87,0V78.48H90.48C98.89,50.79,116.29,24.74,140.87,0Z"/><path class="cls-3" d="M140.87,94.36v55.77H87.35a151.47,151.47,0,0,1-2.6-31.06,129.26,129.26,0,0,1,1.93-24.71Z"/><path class="cls-3" d="M140.87,166v76.17Q103.94,206.91,91.3,166Z"/><path class="cls-4" d="M0,113.74l14-.41.21,7.19a7,7,0,0,1-.9,4.21,3.15,3.15,0,0,1-2.6,1.45,3.24,3.24,0,0,1-1.91-.51,3.73,3.73,0,0,1-1.33-1.58,6.1,6.1,0,0,1-.53-2.45l1,.36a7,7,0,0,1-.37,2.6,3.86,3.86,0,0,1-1.26,1.78,3.48,3.48,0,0,1-2,.67,3.24,3.24,0,0,1-2.87-1.4,7.71,7.71,0,0,1-1.14-4.32Zm3,3.85.1,3.35a2.93,2.93,0,0,0,.39,1.57,1.2,1.2,0,0,0,1.09.49,1.19,1.19,0,0,0,1-.55,2.83,2.83,0,0,0,.31-1.59l-.11-3.63,2.74-.08.09,3a2.79,2.79,0,0,0,.38,1.5,1.15,1.15,0,0,0,1,.48,1.17,1.17,0,0,0,1-.54,2.78,2.78,0,0,0,.29-1.52l-.08-2.75Z"/><path class="cls-4" d="M.44,128.51l14.74,4.21.55,3.9-13,8.17-.58-4.12,11.25-6.53.22,1.56L1,132.55Zm3.19,3,3,.61,1,6.84-2.73,1.43Z"/><path class="cls-4" d="M3.3,146.7l13.59-3.36,1,3.89-10.54,2.6,1.61,6.53-3,.76Z"/><path class="cls-4" d="M7.15,160.92l10.3-3.45-1.38-4.12,3-1,4,12-3,1-1.37-4.1-10.3,3.45Z"/><path class="cls-4" d="M10.69,170.76l12.93-5.37,1.53,3.69-12.92,5.37Z"/><path class="cls-4" d="M16.5,184.1a8.62,8.62,0,0,1-.93-3,7.48,7.48,0,0,1,.22-2.88,6.87,6.87,0,0,1,1.31-2.51,7.73,7.73,0,0,1,5.24-2.67,6.79,6.79,0,0,1,2.8.41A7.44,7.44,0,0,1,27.6,175a9.52,9.52,0,0,1,2.87,5.94,6.56,6.56,0,0,1-.59,3.19l-3.18-1.23a5.08,5.08,0,0,0,.39-1.9,3.91,3.91,0,0,0-.45-1.81,4.3,4.3,0,0,0-1-1.3,3.5,3.5,0,0,0-1.29-.74,3.92,3.92,0,0,0-1.5-.14,4.52,4.52,0,0,0-1.59.48,4.58,4.58,0,0,0-1.33,1,3.83,3.83,0,0,0-.76,1.3,3.43,3.43,0,0,0-.16,1.47,4.21,4.21,0,0,0,.48,1.55,4,4,0,0,0,1.2,1.43,4.88,4.88,0,0,0,1.79.79l-.88,3.3a6.59,6.59,0,0,1-2.93-1.4A8.61,8.61,0,0,1,16.5,184.1Z"/><path class="cls-4" d="M24.14,196.68l11.64-7.77L38,192.23,26.36,200Z"/><path class="cls-4" d="M28.3,203l11-8.69,2,2.58-2.47,11.88-1-1.22,7.3-5.79,2.43,3.07-11,8.7-2-2.58L37.06,199l1,1.22-7.3,5.79Z"/><path class="cls-4" d="M42.46,220a13,13,0,0,1-2-2.7,8.51,8.51,0,0,1-1-2.62l3-1.12a9.12,9.12,0,0,0,.82,2.26,8.4,8.4,0,0,0,1.46,2,5,5,0,0,0,1,.86,1.48,1.48,0,0,0,.79.24.92.92,0,0,0,.61-.27.83.83,0,0,0,.21-.82,4.34,4.34,0,0,0-.49-1.16c-.24-.43-.52-.88-.83-1.36a16,16,0,0,1-.87-1.53,6.78,6.78,0,0,1-.58-1.65,3.38,3.38,0,0,1,1.09-3.26,4,4,0,0,1,2.09-1.1,4.88,4.88,0,0,1,2.63.34,8.69,8.69,0,0,1,2.87,2.05,12.23,12.23,0,0,1,1.7,2.17,8,8,0,0,1,1,2.35L53,215.92a9.08,9.08,0,0,0-.81-2A7.74,7.74,0,0,0,51,212.36a4,4,0,0,0-1.06-.82,1.51,1.51,0,0,0-.84-.2.89.89,0,0,0-.58.26.83.83,0,0,0-.23.84,4,4,0,0,0,.49,1.13c.25.42.53.87.85,1.37s.6,1,.87,1.53a6.7,6.7,0,0,1,.58,1.62,3.59,3.59,0,0,1,0,1.66,3.53,3.53,0,0,1-1,1.6,4,4,0,0,1-2.1,1.07,4.73,4.73,0,0,1-2.64-.34A8.6,8.6,0,0,1,42.46,220Z"/><path class="cls-4" d="M49.05,226.14l9-10.75,5,4.13a8.25,8.25,0,0,1,2.18,2.62,4.83,4.83,0,0,1,.52,2.77,4.91,4.91,0,0,1-1.18,2.6,5,5,0,0,1-2.36,1.64,5,5,0,0,1-2.8,0,8.06,8.06,0,0,1-3-1.66l-3.26-2.72,2.5-.18-3.46,4.14Zm6.23-1.23-.19-2.58,3.07,2.56a2.86,2.86,0,0,0,1.79.8,2.13,2.13,0,0,0,1.92-2.31,2.8,2.8,0,0,0-1.09-1.62l-3.07-2.56,2.54-.25Z"/><path class="cls-4" d="M66.11,235.59l6.12,4.14-1.72,2.56-9.39-6.35L69,224.34l9.17,6.2-1.72,2.55-5.91-4ZM69,230.88l5.43,3.68L72.75,237l-5.44-3.68Z"/><path class="cls-4" d="M79.26,247.48a8.77,8.77,0,0,1-2.48-1.93,7.38,7.38,0,0,1-1.46-2.48,6.85,6.85,0,0,1-.35-2.81,7.61,7.61,0,0,1,2.78-5.18,6.75,6.75,0,0,1,2.54-1.27,7.3,7.3,0,0,1,2.88-.15,8.67,8.67,0,0,1,3,1,8.82,8.82,0,0,1,2.77,2.25,6.56,6.56,0,0,1,1.34,2.95l-3.32.81a4.92,4.92,0,0,0-.76-1.79,3.89,3.89,0,0,0-1.4-1.23,4.24,4.24,0,0,0-1.54-.51,3.48,3.48,0,0,0-1.48.12,3.81,3.81,0,0,0-1.31.74,4.8,4.8,0,0,0-1.55,2.89,3.74,3.74,0,0,0,.11,1.5,3.26,3.26,0,0,0,.71,1.3,4.34,4.34,0,0,0,1.28,1,3.91,3.91,0,0,0,1.8.48,4.88,4.88,0,0,0,1.92-.37L85.87,248a6.59,6.59,0,0,1-3.2.53A8.58,8.58,0,0,1,79.26,247.48Z"/><path class="cls-4" d="M89.84,252.25l4.17-10-4-1.67,1.21-2.9,11.69,4.87-1.21,2.9-4-1.66-4.17,10Z"/><path class="cls-4" d="M99.54,256,104,242.77l3.79,1.28-4.46,13.27Z"/><path class="cls-4" d="M113.57,260.48a8.93,8.93,0,0,1-2.9-1.26,7.28,7.28,0,0,1-2.06-2.08,7,7,0,0,1-1-2.64,7,7,0,0,1,.11-3,6.76,6.76,0,0,1,1.26-2.66,7.08,7.08,0,0,1,2.15-1.85,7.18,7.18,0,0,1,2.77-.9,9.29,9.29,0,0,1,6.09,1.48,7.61,7.61,0,0,1,2,2.07,7,7,0,0,1,1.05,2.62,6.92,6.92,0,0,1-.1,3,7.3,7.3,0,0,1-1.27,2.71,6.9,6.9,0,0,1-2.14,1.85,7.68,7.68,0,0,1-2.79.89A8.86,8.86,0,0,1,113.57,260.48Zm.78-3.19a4,4,0,0,0,1.53.09,3.54,3.54,0,0,0,1.37-.5,3.77,3.77,0,0,0,1.08-1,4.43,4.43,0,0,0,.68-1.54,4.37,4.37,0,0,0,.1-1.67,3.79,3.79,0,0,0-.48-1.42,3.48,3.48,0,0,0-1-1.07,4.06,4.06,0,0,0-1.4-.63,3.93,3.93,0,0,0-1.52-.08,3.51,3.51,0,0,0-1.38.49,3.72,3.72,0,0,0-1.09,1,4.63,4.63,0,0,0-.66,1.53,4.42,4.42,0,0,0-.12,1.67,3.65,3.65,0,0,0,1.48,2.5A3.94,3.94,0,0,0,114.35,257.29Z"/><path class="cls-4" d="M124.4,262.57l1.68-13.9,3.27.4,6.6,10.18-1.55-.18,1.12-9.26,3.89.47-1.68,13.9-3.27-.39-6.62-10.19,1.55.18L128.27,263Z"/><path class="cls-4" d="M152.63,264.69a7.69,7.69,0,0,1-2.91-.41,4.86,4.86,0,0,1-2.05-1.34,3.15,3.15,0,0,1-.81-2,3.89,3.89,0,0,1,.43-2,4.88,4.88,0,0,1,1.48-1.63,14.69,14.69,0,0,1,2.59-1.49A14.87,14.87,0,0,0,153,255a3,3,0,0,0,.86-.72,1,1,0,0,0,.24-.68.88.88,0,0,0-.32-.67,1.31,1.31,0,0,0-.87-.23,1.36,1.36,0,0,0-.9.32.94.94,0,0,0-.31.76,1.21,1.21,0,0,0,.13.52,2.28,2.28,0,0,0,.46.6c.23.22.56.51,1,.85L161,262l-2,2.39-8.66-7.13a8.33,8.33,0,0,1-1.16-1.12,4.21,4.21,0,0,1-.68-1.1,3.23,3.23,0,0,1,.28-3,3.85,3.85,0,0,1,1.61-1.32,6.55,6.55,0,0,1,2.46-.54,5.76,5.76,0,0,1,2.32.34,3.66,3.66,0,0,1,1.56,1.1,3,3,0,0,1,.62,1.79,3.09,3.09,0,0,1-.42,1.68,4.63,4.63,0,0,1-1.4,1.44,14.94,14.94,0,0,1-2.48,1.33,11,11,0,0,0-1.44.82,2.73,2.73,0,0,0-.77.8,1.72,1.72,0,0,0-.21.91,1.22,1.22,0,0,0,.29.73,1.7,1.7,0,0,0,.76.51,2.88,2.88,0,0,0,1.16.16,4.29,4.29,0,0,0,2.14-.64,5,5,0,0,0,1.65-1.73,7.16,7.16,0,0,0,.91-2.71l3.1.81a9.14,9.14,0,0,1-1.48,3.67,8.08,8.08,0,0,1-2.77,2.5A8.21,8.21,0,0,1,152.63,264.69Z"/><path class="cls-4" d="M175,262.42a13.45,13.45,0,0,1-3.39.17,9,9,0,0,1-2.75-.61l.77-3.13a9.54,9.54,0,0,0,2.34.59,8,8,0,0,0,2.5-.06,5.17,5.17,0,0,0,1.3-.37,1.53,1.53,0,0,0,.64-.53.92.92,0,0,0,.12-.65.82.82,0,0,0-.57-.64,4.61,4.61,0,0,0-1.22-.24c-.49,0-1-.07-1.6-.08s-1.15-.06-1.75-.14a6.46,6.46,0,0,1-1.69-.45,3.57,3.57,0,0,1-1.33-1,3.53,3.53,0,0,1-.76-1.75,4,4,0,0,1,.27-2.35,4.75,4.75,0,0,1,1.76-2,8.61,8.61,0,0,1,3.31-1.23,12.68,12.68,0,0,1,2.75-.18,8.11,8.11,0,0,1,2.5.49l-.67,3.09a8.48,8.48,0,0,0-2.12-.45,8.17,8.17,0,0,0-1.93.08,4,4,0,0,0-1.28.42,1.67,1.67,0,0,0-.64.58,1,1,0,0,0-.11.63.85.85,0,0,0,.57.66,4.27,4.27,0,0,0,1.21.23c.49,0,1,.05,1.6.06s1.18.07,1.76.14a7,7,0,0,1,1.67.44,3.5,3.5,0,0,1,1.36.95,3.55,3.55,0,0,1,.76,1.72,3.94,3.94,0,0,1-.29,2.34,4.79,4.79,0,0,1-1.76,2A8.65,8.65,0,0,1,175,262.42Z"/><path class="cls-4" d="M190.1,258.87a6.73,6.73,0,0,1-5.16-.27,6.42,6.42,0,0,1-3-4.12L179.75,247l3.84-1.12,2.14,7.36a3.8,3.8,0,0,0,1.39,2.26,2.55,2.55,0,0,0,2.1.2,2.49,2.49,0,0,0,1.66-1.3,3.81,3.81,0,0,0,0-2.65l-2.14-7.35,3.8-1.11,2.18,7.47a6.31,6.31,0,0,1-.36,5.1A6.74,6.74,0,0,1,190.1,258.87Z"/><path class="cls-4" d="M199.89,255.48l-5.39-12.92,5.95-2.48a8.22,8.22,0,0,1,3.33-.72,4.81,4.81,0,0,1,2.7.82,5.41,5.41,0,0,1,2.12,5.08,4.78,4.78,0,0,1-1.34,2.45,8.34,8.34,0,0,1-2.86,1.86l-3.91,1.63,1-2.24,2.08,5Zm1.79-6.1-2.37-1,3.69-1.53a2.85,2.85,0,0,0,1.53-1.23,1.88,1.88,0,0,0,0-1.64,1.84,1.84,0,0,0-1.15-1.13,2.75,2.75,0,0,0-1.94.21l-3.7,1.54,1-2.37Zm6.26,2.74-5.2-3.35,3.93-1.64,5.22,3.35Z"/><path class="cls-4" d="M218.26,247.1l-12-9.34,3.77-2.08,10.32,8.15-2.22,1.23-1.29-13.13,3.47-1.91,1.45,15.18Z"/><path class="cls-4" d="M229.9,236.49l6.08-4.21,1.75,2.54-9.33,6.44-8-11.52,9.11-6.29,1.75,2.53L225.44,230Zm-3.36-4.37,5.4-3.73,1.67,2.42-5.4,3.73Z"/><path class="cls-4" d="M242.79,230.7,239,226.18l2.25,1.22-11.6-3.89,3.24-2.74,8.36,2.85-1.85,1.57L238,216.44l3-2.5,2,12L242,223.6l3.82,4.52Z"/><path class="cls-4" d="M260.6,213.75a8.64,8.64,0,0,1-2.44,2,7.59,7.59,0,0,1-2.75.86,6.78,6.78,0,0,1-2.82-.3,7.21,7.21,0,0,1-2.59-1.51,7.11,7.11,0,0,1-1.82-2.38,6.8,6.8,0,0,1-.65-2.75,7.22,7.22,0,0,1,.5-2.84,9.37,9.37,0,0,1,4.46-4.86,6.53,6.53,0,0,1,3.18-.63l0,3.42a4.89,4.89,0,0,0-1.91.33,4,4,0,0,0-1.52,1.08,4.73,4.73,0,0,0-.85,1.39,3.35,3.35,0,0,0-.21,1.46,3.88,3.88,0,0,0,.42,1.45,4.83,4.83,0,0,0,2.46,2.17,3.9,3.9,0,0,0,1.49.23,3.38,3.38,0,0,0,1.43-.4,4.25,4.25,0,0,0,1.26-1,3.94,3.94,0,0,0,.89-1.64,4.9,4.9,0,0,0,.07-2l3.39-.4a6.61,6.61,0,0,1-.21,3.24A8.69,8.69,0,0,1,260.6,213.75Z"/><path class="cls-4" d="M270.25,201.36a8.68,8.68,0,0,1-2.23,2.25,7.27,7.27,0,0,1-2.68,1.18,7.38,7.38,0,0,1-2.85,0,7.34,7.34,0,0,1-4.75-3.31,7.31,7.31,0,0,1-.95-2.67,7.38,7.38,0,0,1,.16-2.91A9,9,0,0,1,258.3,193a8.88,8.88,0,0,1,2.23-2.26,7.44,7.44,0,0,1,2.67-1.17,6.94,6.94,0,0,1,5.55,1.13,7.31,7.31,0,0,1,2.07,2.16,6.84,6.84,0,0,1,.95,2.67,7.59,7.59,0,0,1-.18,2.91A8.94,8.94,0,0,1,270.25,201.36Zm-2.69-1.87a4.38,4.38,0,0,0,.63-1.4,3.42,3.42,0,0,0,0-1.46,3.75,3.75,0,0,0-.57-1.38,4.41,4.41,0,0,0-1.18-1.18,4.49,4.49,0,0,0-1.53-.71,4,4,0,0,0-1.49-.05,3.39,3.39,0,0,0-1.36.53,4.14,4.14,0,0,0-1.72,2.47,3.6,3.6,0,0,0,0,1.46,3.73,3.73,0,0,0,.57,1.39,4.57,4.57,0,0,0,1.19,1.17,4.45,4.45,0,0,0,1.52.71,3.42,3.42,0,0,0,1.49.06,3.45,3.45,0,0,0,1.37-.54A4.1,4.1,0,0,0,267.56,199.49Z"/><path class="cls-4" d="M276.21,192l-12.43-6.43,1.51-2.92,11.14-.81-.8,1.54-5.83-9.45,1.51-2.93,12.45,6.42-1.69,3.26-7.53-3.85.28-.55,4.33,7-.81,1.58-8.31.64.36-.68,7.51,3.89Z"/><path class="cls-4" d="M285.23,173.73l-13.13-4.87,2.24-6a8.41,8.41,0,0,1,1.74-2.93,4.81,4.81,0,0,1,2.44-1.41,5.39,5.39,0,0,1,5.18,1.92,5,5,0,0,1,.91,2.65,8.11,8.11,0,0,1-.58,3.36l-1.47,4-1-2.29,5.07,1.88ZM282,168.26l-2.36,1,1.39-3.75a2.83,2.83,0,0,0,.15-2,1.85,1.85,0,0,0-1.2-1.11,1.88,1.88,0,0,0-1.61.07,2.8,2.8,0,0,0-1.17,1.57l-1.39,3.75-1.08-2.32Z"/><path class="cls-4" d="M289.86,161.38l-12-9.53,1-3.82L294,145.46l-1,4L280,151.22l.39-1.53,10.47,7.74Zm-1.8-4-2.56-1.72,1.72-6.69,3.07-.28Z"/><path class="cls-4" d="M294.28,143.38l-13.87-1.92.45-3.27,10.3-6.42-.21,1.54L281.71,132l.54-3.88,13.87,1.92-.45,3.26-10.3,6.45.21-1.54,9.23,1.27Z"/><path class="cls-4" d="M296.48,122.74l-5.92-.17,2.41-.86-10.64,6,.12-4.24,7.72-4.32-.08,2.42-7.44-4.81.12-3.87L293,119.51l-2.36-.94,5.92.17Z"/><path class="cls-5" d="M30.79,141.58v-35.8H49q7.11,0,10.59,2.6a8.08,8.08,0,0,1,3.48,6.76A8.38,8.38,0,0,1,61.63,120a9.36,9.36,0,0,1-4.09,3.27,15.37,15.37,0,0,1-6.24,1.18l1-2.46a17.41,17.41,0,0,1,6.58,1.15,9.77,9.77,0,0,1,4.4,3.35,8.87,8.87,0,0,1,1.56,5.27A8.31,8.31,0,0,1,61.05,139q-3.77,2.61-11,2.61Zm10-7.31h8.5a7.18,7.18,0,0,0,4-.9,3.48,3.48,0,0,0,0-5.47,7.18,7.18,0,0,0-4-.9H40.05v-7h7.67a6.86,6.86,0,0,0,3.84-.87,2.91,2.91,0,0,0,1.28-2.56,3,3,0,0,0-1.28-2.64,7.06,7.06,0,0,0-3.84-.84h-7Z"/><path class="cls-5" d="M107.27,143.72V103.63h11.34v40.09Z"/><path class="cls-5" d="M182.61,144.11a35.46,35.46,0,0,1-9.35-1.21,24,24,0,0,1-7.21-3.06l3.65-8.25a25.48,25.48,0,0,0,6.09,2.78,22.63,22.63,0,0,0,6.88,1.1,13.74,13.74,0,0,0,3.73-.4,4.14,4.14,0,0,0,2-1.12,2.53,2.53,0,0,0,.64-1.74,2.32,2.32,0,0,0-1.23-2.05,12.59,12.59,0,0,0-3.23-1.29c-1.33-.35-2.77-.69-4.32-1a44.46,44.46,0,0,1-4.74-1.26,18.44,18.44,0,0,1-4.38-2.08,9.85,9.85,0,0,1-3.17-3.37,10.18,10.18,0,0,1-1.21-5.22,11.2,11.2,0,0,1,1.91-6.34,13.19,13.19,0,0,1,5.78-4.6,23.56,23.56,0,0,1,9.65-1.74,33.39,33.39,0,0,1,7.61.87,22.42,22.42,0,0,1,6.6,2.61L195,114.92a24.55,24.55,0,0,0-5.56-2.3,21,21,0,0,0-5.33-.73,11.11,11.11,0,0,0-3.71.51,4.31,4.31,0,0,0-2,1.29,2.66,2.66,0,0,0-.61,1.68,2.37,2.37,0,0,0,1.23,2.11,11.38,11.38,0,0,0,3.2,1.23c1.31.32,2.76.65,4.35,1a47.42,47.42,0,0,1,4.74,1.27,18.8,18.8,0,0,1,4.35,2,9.35,9.35,0,0,1,4.47,8.45,11.12,11.12,0,0,1-1.94,6.31,13.31,13.31,0,0,1-5.81,4.63A23.73,23.73,0,0,1,182.61,144.11Z"/><path class="cls-5" d="M248.52,141.73a21.15,21.15,0,0,1-7.59-1.32,18.11,18.11,0,0,1-6.05-3.71,17.07,17.07,0,0,1-4-5.73,19.3,19.3,0,0,1,0-14.58,17.07,17.07,0,0,1,4-5.73,18.3,18.3,0,0,1,6.05-3.72,22.89,22.89,0,0,1,16.19.35,16.1,16.1,0,0,1,6.32,4.89l-6.25,5.65a12.24,12.24,0,0,0-3.72-3,9.67,9.67,0,0,0-4.46-1,10.59,10.59,0,0,0-3.92.7,8.48,8.48,0,0,0-3.05,2,9.59,9.59,0,0,0-2,3.15,11.86,11.86,0,0,0,0,8.14,9.44,9.44,0,0,0,2,3.14,8.37,8.37,0,0,0,3.05,2,10.59,10.59,0,0,0,3.92.7,9.55,9.55,0,0,0,4.46-1,11.69,11.69,0,0,0,3.72-3.07l6.25,5.65a16.24,16.24,0,0,1-6.32,4.91A20.89,20.89,0,0,1,248.52,141.73Z"/></g></g></svg>